<?xml version="1.0" encoding="UTF-8"?>
<svg width="280px" height="392px" viewBox="0 0 280 392" version="1.1" xmlns="http://www.w3.org/2000/svg" xmlns:xlink="http://www.w3.org/1999/xlink">
    <!-- Generator: Sketch 63.1 (92452) - https://sketch.com -->
    <title>ST-GCN-block</title>
    <desc>Created with Sketch.</desc>
    <g id="ST-GCN-block" stroke="none" stroke-width="1" fill="none" fill-rule="evenodd">
        <g id="Box" transform="translate(24.000000, 292.000000)" fill="#339C84" fill-opacity="0.7" stroke="#FFFFFF">
            <polygon id="Rectangle" points="0 40.9814561 22.0744701 31 52 35.9593518 30.07933 46"></polygon>
            <polygon id="Rectangle" points="0 9.45895846 23 0 23 31.5410415 0 41"></polygon>
            <polygon id="Rectangle" points="23 0 52 4.67697341 52 36 23 31.3817349"></polygon>
            <polygon id="Rectangle" points="0 9.98145605 22.0744701 0 52 4.95935184 30.07933 15"></polygon>
            <polygon id="Rectangle" points="30 14.4589585 52 5 52 36.5410415 30 46"></polygon>
            <polygon id="Rectangle" points="0 10 30 14.6769734 30 46 0 41.3817349"></polygon>
        </g>
        <g id="Box" transform="translate(84.000000, 301.000000)" fill="#339C84" fill-opacity="0.7" stroke="#FFFFFF">
            <polygon id="Rectangle" points="0 40.9814561 22.0744701 31 52 35.9593518 30.07933 46"></polygon>
            <polygon id="Rectangle" points="0 9.45895846 23 0 23 31.5410415 0 41"></polygon>
            <polygon id="Rectangle" points="23 0 52 4.67697341 52 36 23 31.3817349"></polygon>
            <polygon id="Rectangle" points="0 9.98145605 22.0744701 0 52 4.95935184 30.07933 15"></polygon>
            <polygon id="Rectangle" points="30 14.4589585 52 5 52 36.5410415 30 46"></polygon>
            <polygon id="Rectangle" points="0 10 30 14.6769734 30 46 0 41.3817349"></polygon>
        </g>
        <g id="Box" transform="translate(144.000000, 310.000000)" fill="#339C84" fill-opacity="0.7" stroke="#FFFFFF">
            <polygon id="Rectangle" points="0 40.9814561 22.0744701 31 52 35.9593518 30.07933 46"></polygon>
            <polygon id="Rectangle" points="0 9.45895846 23 0 23 31.5410415 0 41"></polygon>
            <polygon id="Rectangle" points="23 0 52 4.67697341 52 36 23 31.3817349"></polygon>
            <polygon id="Rectangle" points="0 9.98145605 22.0744701 0 52 4.95935184 30.07933 15"></polygon>
            <polygon id="Rectangle" points="30 14.4589585 52 5 52 36.5410415 30 46"></polygon>
            <polygon id="Rectangle" points="0 10 30 14.6769734 30 46 0 41.3817349"></polygon>
        </g>
        <path id="Line" d="M23.4585877,346.30351 L23.9525388,346.381049 L187.555,372.062 L188.17568,368.111279 L196.368951,373.952539 L186.779981,377.0024 L187.399,373.05 L23.7974612,347.368951 L23.30351,347.291412 L23.4585877,346.30351 Z" fill="#000000" fill-rule="nonzero"></path>
        <path id="Line" d="M189.566399,53.7710298 L199.627977,53.8920712 L197.78,57.477 L197.881324,57.5380226 C215.44292,68.1715287 224.319745,85.1564623 224.497283,108.428315 L224.5,109.142682 L224.5,216 C224.5,267.518453 196.899818,300.890997 141.806191,316.030087 L140.128272,316.483266 L139.645005,316.611538 L139.388462,315.645005 L139.871728,315.516734 C195.102689,300.856974 222.940417,268.227736 223.491648,217.541475 L223.5,216 L223.5,109.142682 C223.5,85.8407638 214.792439,68.9463093 197.362352,58.3928153 L197.321,58.368 L195.506513,61.8929169 L189.566399,53.7710298 Z" fill="#000000" fill-rule="nonzero"></path>
        <path d="M33.252,370.537219 L33.252,369.979219 L32.532,369.87003 C30.642,369.583407 30.642,369.331407 30.642,368.719407 L30.642,359.233407 C30.642,358.873407 30.642,358.621407 30.966,358.598543 C31.164,358.59257 31.65,358.666272 31.992,358.718137 C34.71,359.130327 34.98,359.765273 35.232,362.70149 L35.682,362.769733 L35.34,358.667868 L24.342,357 L24,360.998135 L24.45,361.066378 C24.702,358.206595 24.972,357.653541 27.69,358.065731 C28.014,358.114866 28.482,358.185839 28.662,358.249136 C29.0056364,358.366704 29.036876,358.541028 29.039716,358.882796 L29.0392318,368.606462 C29.0296296,369.122839 28.9,369.31923 27.15,369.053839 L26.43,368.944649 L26.43,369.502649 C27.168,369.560568 29.004,369.839001 29.832,369.964569 C30.66,370.090137 32.514,370.3713 33.252,370.537219 Z M38.832,361.465437 C39.444,361.558248 39.804,361.108843 39.804,360.658843 C39.804,360.172843 39.39,359.642059 38.85,359.560167 C38.238,359.467356 37.878,359.916761 37.878,360.366761 C37.878,360.852761 38.292,361.383545 38.832,361.465437 Z M40.794,371.680978 L40.794,371.122978 C39.6625714,370.951395 39.5433878,370.851688 39.5346025,370.236167 L39.534,363.533896 L37.014,363.349734 L37.014,363.907734 C38.184,364.085166 38.346,364.217734 38.346,365.099734 L38.346,369.941734 C38.346,370.751734 38.148,370.721707 36.942,370.538815 L36.942,371.096815 L38.922,371.343086 C39.552,371.438626 40.182,371.570167 40.794,371.680978 Z M55.986,373.984874 L55.986,373.426874 C55.05,373.284928 54.6,373.216685 54.582,372.673955 L54.582,369.235955 C54.582,367.687955 54.582,367.129955 54.024,366.397333 C53.772,366.053117 53.178,365.603036 52.134,365.444711 C50.622,365.215413 49.83,366.175305 49.524,366.8129 C49.272,365.208683 47.94,364.808683 47.13,364.685845 C45.816,364.486574 44.97,365.132277 44.466,366.171844 L44.466,364.281844 L41.928,364.094951 L41.928,364.652951 C43.188,364.844033 43.332,364.991871 43.332,365.873871 L43.332,370.697871 C43.332,371.507871 43.134,371.477844 41.928,371.294951 L41.928,371.852951 L43.962,372.107411 L45.978,372.467142 L45.978,371.909142 L45.6601574,371.860241 C44.7360816,371.713455 44.574,371.619079 44.574,370.886222 L44.574,367.574222 C44.574,365.702222 45.852,364.888034 47.004,365.062737 C48.138,365.23471 48.336,366.236737 48.336,367.262737 L48.336,371.456737 C48.336,372.266737 48.138,372.23671 46.932,372.053818 L46.932,372.611818 L48.966,372.866278 L50.982,373.226008 L50.982,372.668008 L50.6641574,372.619107 C49.7400816,372.472322 49.578,372.377946 49.578,371.645089 L49.578,368.333089 C49.578,366.461089 50.856,365.6469 52.008,365.821603 C53.142,365.993576 53.34,366.995603 53.34,368.021603 L53.34,372.215603 C53.34,373.025603 53.142,372.995576 51.936,372.812684 L51.936,373.370684 L53.97,373.625144 L55.986,373.984874 Z M60.81,374.914443 C63.006,375.247471 63.816,373.372309 63.816,373.030309 C63.816,372.850309 63.672,372.792471 63.582,372.778823 C63.42,372.754255 63.384,372.856796 63.348,372.995336 C62.718,374.753795 61.098,374.508119 60.918,374.480822 C60.018,374.344335 59.298,373.695146 58.884,372.966362 C58.344,372.02047 58.344,370.83247 58.344,370.18447 L63.366,370.946066 C63.762,371.00612 63.816,371.014309 63.816,370.636309 C63.816,368.854309 62.844,366.960904 60.594,366.619687 C58.506,366.303037 56.85,367.905902 56.85,370.155902 C56.85,372.567902 58.74,374.600524 60.81,374.914443 Z M62.628,370.456147 L58.362,369.8092 C58.47,367.143578 59.982,366.922876 60.594,367.015687 C62.448,367.296849 62.628,369.754147 62.628,370.456147 Z" id="Time" fill="#000000" fill-rule="nonzero"></path>
        <path id="Line" d="M110.4375,282.0625 L114.9375,291.0625 L110.937,291.062 L110.9375,299.0625 L109.9375,299.0625 L109.937,291.062 L105.9375,291.0625 L110.4375,282.0625 Z" fill="#000000" fill-rule="nonzero"></path>
        <path id="Line" d="M50.4375,273.0625 L54.9375,282.0625 L50.937,282.062 L50.9375,290.0625 L49.9375,290.0625 L49.937,282.062 L45.9375,282.0625 L50.4375,273.0625 Z" fill="#000000" fill-rule="nonzero"></path>
        <path id="Line" d="M170.4375,291.0625 L174.9375,300.0625 L170.937,300.062 L170.9375,308.0625 L169.9375,308.0625 L169.937,300.062 L165.9375,300.0625 L170.4375,291.0625 Z" fill="#000000" fill-rule="nonzero"></path>
        <g id="Box" transform="translate(144.000000, 162.000000)" fill="#339C84" fill-opacity="0.7" stroke="#FFFFFF">
            <polygon id="Rectangle" points="0 40.9814561 22.0744701 31 52 35.9593518 30.07933 46"></polygon>
            <polygon id="Rectangle" points="0 9.45895846 23 0 23 31.5410415 0 41"></polygon>
            <polygon id="Rectangle" points="23 0 52 4.67697341 52 36 23 31.3817349"></polygon>
            <polygon id="Rectangle" points="0 9.98145605 22.0744701 0 52 4.95935184 30.07933 15"></polygon>
            <polygon id="Rectangle" points="30 14.4589585 52 5 52 36.5410415 30 46"></polygon>
            <polygon id="Rectangle" points="0 10 30 14.6769734 30 46 0 41.3817349"></polygon>
        </g>
        <g id="Box" transform="translate(144.000000, 8.000000)" fill="#339C84" fill-opacity="0.7" stroke="#FFFFFF">
            <polygon id="Rectangle" points="0 40.9814561 22.0744701 31 52 35.9593518 30.07933 46"></polygon>
            <polygon id="Rectangle" points="0 9.45895846 23 0 23 31.5410415 0 41"></polygon>
            <polygon id="Rectangle" points="23 0 52 4.67697341 52 36 23 31.3817349"></polygon>
            <polygon id="Rectangle" points="0 9.98145605 22.0744701 0 52 4.95935184 30.07933 15"></polygon>
            <polygon id="Rectangle" points="30 14.4589585 52 5 52 36.5410415 30 46"></polygon>
            <polygon id="Rectangle" points="0 10 30 14.6769734 30 46 0 41.3817349"></polygon>
        </g>
        <g id="Box" transform="translate(84.000000, 153.000000)" fill="#339C84" fill-opacity="0.7" stroke="#FFFFFF">
            <polygon id="Rectangle" points="0 40.9814561 22.0744701 31 52 35.9593518 30.07933 46"></polygon>
            <polygon id="Rectangle" points="0 9.45895846 23 0 23 31.5410415 0 41"></polygon>
            <polygon id="Rectangle" points="23 0 52 4.67697341 52 36 23 31.3817349"></polygon>
            <polygon id="Rectangle" points="0 9.98145605 22.0744701 0 52 4.95935184 30.07933 15"></polygon>
            <polygon id="Rectangle" points="30 14.4589585 52 5 52 36.5410415 30 46"></polygon>
            <polygon id="Rectangle" points="0 10 30 14.6769734 30 46 0 41.3817349"></polygon>
        </g>
        <g id="Box" transform="translate(24.000000, 144.000000)" fill="#339C84" fill-opacity="0.7" stroke="#FFFFFF">
            <polygon id="Rectangle" points="0 40.9814561 22.0744701 31 52 35.9593518 30.07933 46"></polygon>
            <polygon id="Rectangle" points="0 9.45895846 23 0 23 31.5410415 0 41"></polygon>
            <polygon id="Rectangle" points="23 0 52 4.67697341 52 36 23 31.3817349"></polygon>
            <polygon id="Rectangle" points="0 9.98145605 22.0744701 0 52 4.95935184 30.07933 15"></polygon>
            <polygon id="Rectangle" points="30 14.4589585 52 5 52 36.5410415 30 46"></polygon>
            <polygon id="Rectangle" points="0 10 30 14.6769734 30 46 0 41.3817349"></polygon>
        </g>
        <polygon id="Rectangle" stroke="#FFFFFF" fill-opacity="0.7" fill="#E15D02" points="144 72 196 79.9931939 196 144 24 117.57045"></polygon>
        <polygon id="Rectangle" stroke="#FFFFFF" fill-opacity="0.7" fill="#E15D02" points="142 244.119101 196 221 196 277.698663 142 301"></polygon>
        <polygon id="Rectangle" stroke="#FFFFFF" fill-opacity="0.7" fill="#E15D02" points="82 235.119101 136 212 136 268.698663 82 292"></polygon>
        <polygon id="Rectangle" stroke="#FFFFFF" fill-opacity="0.7" fill="#E15D02" points="22 226.119101 76 203 76 259.698663 22 283"></polygon>
        <path d="M79.2481784,118.46893 L79.2481784,117.91041 L78.5284758,117.807657 C76.6392565,117.537929 76.6392565,117.285694 76.6392565,116.673124 L76.6392565,107.178283 C76.6392565,106.817948 76.6392565,106.565713 76.9631227,106.539885 C77.1610409,106.532109 77.6468401,106.601467 77.9886989,106.650275 C80.7055762,107.038169 80.9754647,107.671255 81.2273606,110.60792 L81.6771747,110.672141 L81.335316,106.569558 L70.3418587,105 L70,109.004966 L70.4498141,109.069187 C70.70171,106.20445 70.9715985,105.648429 73.6884758,106.036323 C74.012342,106.082562 74.4801487,106.149352 74.6600743,106.211074 C75.0035688,106.325631 75.0347955,106.499834 75.0376343,106.841895 L75.0371504,116.574627 C75.0275521,117.091572 74.897976,117.289323 73.1486989,117.039575 L72.4289963,116.936821 L72.4289963,117.495342 C73.1666914,117.546613 75.0019331,117.808635 75.8295911,117.926801 C76.6572491,118.044967 78.5104833,118.309558 79.2481784,118.46893 Z M85.3116729,119.532812 C87.5067658,119.84621 88.3164312,117.961946 88.3164312,117.619627 C88.3164312,117.439459 88.1724907,117.382875 88.0825279,117.370031 C87.9205948,117.346911 87.8846097,117.449874 87.8486245,117.588871 C87.2188848,119.354689 85.5995539,119.123494 85.4196283,119.097806 C84.52,118.969364 83.8002974,118.326107 83.3864684,117.600403 C82.8466914,116.658533 82.8466914,115.469426 82.8466914,114.820822 L87.8666171,115.537527 C88.2624535,115.594042 88.3164312,115.601748 88.3164312,115.223396 C88.3164312,113.439735 87.3448327,111.553391 85.0957621,111.232286 C83.0086245,110.934302 81.3533086,112.553696 81.3533086,114.805793 C81.3533086,117.220041 83.2425279,119.237396 85.3116729,119.532812 Z M87.1289219,115.053853 L82.864684,114.445039 C82.9726394,111.775952 84.4840149,111.541315 85.0957621,111.628655 C86.9489963,111.893245 87.1289219,114.351198 87.1289219,115.053853 Z M103.466171,121.926582 L103.466171,121.368062 C102.530558,121.234483 102.080743,121.170262 102.062751,120.62719 L102.061986,116.704614 C102.055865,115.510332 102.000777,114.997108 101.504981,114.349786 C101.253086,114.007537 100.659331,113.56243 99.6157621,113.413437 C98.1043866,113.197655 97.3127138,114.165633 97.0068401,114.8066 C96.7549442,113.203177 95.4234944,112.814899 94.613829,112.699301 C93.3003717,112.511776 92.4547212,113.165762 91.9509294,114.210875 L91.9509294,112.319113 L89.4139777,112.155092 L89.4139777,112.713612 C90.6162082,112.885257 90.8020074,113.026697 90.8164143,113.807026 L90.8173978,118.751416 C90.8173978,119.562171 90.6194796,119.533914 89.4139777,119.361802 L89.4139777,119.920322 L91.4471375,120.15655 L93.4623048,120.49831 L93.4623048,119.93979 L93.1445936,119.893729 C92.2208994,119.755198 92.0588848,119.662206 92.0588848,118.928666 L92.0588848,115.613579 C92.0588848,113.739835 93.3363569,112.913283 94.487881,113.077688 C95.6214126,113.239525 95.8193309,114.240688 95.8193309,115.267644 L95.8193309,119.465553 C95.8193309,120.276307 95.6214126,120.24805 94.4159108,120.075938 L94.4159108,120.634458 L96.4490706,120.870686 L98.4642379,121.212446 L98.4642379,120.653926 L98.1465266,120.607866 C97.2228325,120.469334 97.0608178,120.376342 97.0608178,119.642802 L97.0608178,116.327716 C97.0608178,114.453971 98.33829,113.627419 99.4898141,113.791824 C100.623346,113.953661 100.821264,114.954824 100.821264,115.98178 L100.821264,120.179689 C100.821264,120.990444 100.623346,120.962186 99.4178439,120.790074 L99.4178439,121.348594 L101.451004,121.584823 L103.466171,121.926582 Z M108.378141,126.123129 L108.378141,125.564609 L108.06043,125.518548 C107.136736,125.380017 106.974721,125.287025 106.974721,124.553485 L106.974721,121.364516 C107.064684,121.665628 107.820372,122.746425 109.187807,122.941657 C111.328922,123.247348 113.200149,121.748863 113.200149,119.424699 C113.200149,117.136569 111.45487,115.103731 109.439703,114.816021 C108.036283,114.615652 107.280595,115.300499 106.920743,115.645491 L106.920743,114.456384 L104.329814,114.284657 L104.329814,114.843177 C105.549219,115.017274 105.719405,115.140068 105.732357,115.840348 L105.733234,124.376235 C105.733234,125.18699 105.535316,125.158733 104.329814,124.986621 L104.329814,125.545141 L106.344981,125.7788 L108.378141,126.123129 Z M109.115836,122.535012 C108.396134,122.432259 107.712416,121.974308 107.226617,121.166261 C106.974721,120.751945 106.974721,120.733928 106.974721,120.373593 L106.974721,116.355852 C107.496506,115.511493 108.378141,115.114879 109.295762,115.24589 C110.609219,115.433415 111.706766,117.17559 111.706766,119.211486 C111.706766,121.391515 110.447286,122.725106 109.115836,122.535012 Z M118.813829,124.315983 C120.990929,124.626813 122.808178,123.120621 122.808178,120.832491 C122.808178,118.526343 121.008922,116.359682 118.831822,116.048853 C116.582751,115.727748 114.837472,117.4424 114.837472,119.694496 C114.837472,122.01866 116.708699,124.01543 118.813829,124.315983 Z M118.831822,123.868133 C118.058141,123.757673 117.266468,123.266292 116.780669,122.368162 C116.330855,121.511203 116.330855,120.41218 116.330855,119.763576 C116.330855,119.060921 116.330855,118.088016 116.762677,117.35693 C117.248476,116.597516 118.094126,116.339899 118.813829,116.442653 C119.605502,116.555682 120.379182,117.062511 120.846989,117.904022 C121.275812,118.675407 121.311547,119.617756 121.314525,120.296803 L121.314796,120.475143 C121.314796,121.123747 121.314796,122.096653 120.918959,122.832876 C120.523123,123.587117 119.73145,123.996575 118.831822,123.868133 Z M128.169963,125.453593 L128.169963,124.895073 L127.792119,124.841128 C126.460669,124.651034 126.424684,124.447712 126.424684,123.799108 L126.424684,121.024524 C126.424684,119.240864 127.180372,117.745262 128.547807,117.940493 C128.673755,117.958475 128.70974,117.963613 128.745725,117.986767 C128.691747,117.997078 128.331896,118.161902 128.331896,118.630338 C128.331896,119.134808 128.70974,119.459005 129.105576,119.51552 C129.429442,119.561759 129.879257,119.409778 129.879257,118.833241 C129.879257,118.256705 129.321487,117.654584 128.547807,117.544124 C127.234349,117.356599 126.586617,118.471245 126.334721,119.210003 L126.334721,117.228158 L123.833755,117.069274 L123.833755,117.627794 C125.035985,117.799439 125.221784,117.940879 125.236191,118.721208 L125.237175,123.665598 C125.237175,124.476353 125.039257,124.448096 123.833755,124.275984 L123.833755,124.834504 L125.884907,125.073301 C126.60461,125.176054 127.45026,125.29679 128.169963,125.453593 Z M133.837621,126.460961 C135.02513,126.630504 135.852788,126.027999 136.194647,125.230019 C136.266617,125.960965 136.752416,126.787028 137.598067,126.907764 C137.975911,126.961709 139.073457,126.866173 139.073457,125.406815 L139.073457,124.397875 L138.623643,124.333654 L138.623643,125.342594 C138.623643,126.387567 138.173829,126.431446 137.975911,126.403189 C137.382156,126.318418 137.310186,125.497387 137.310186,125.407304 L137.310186,121.803949 C137.310186,121.047244 137.310186,120.34459 136.662454,119.585491 C135.960743,118.782652 135.061115,118.365942 134.197472,118.242638 C132.722082,118.031993 131.480595,118.701532 131.480595,119.890639 C131.480595,120.431143 131.840446,120.788805 132.308253,120.855594 C132.812045,120.927522 133.135911,120.613425 133.135911,120.144989 C133.135911,119.928788 133.045948,119.32139 132.21829,119.185207 C132.704089,118.623978 133.585725,118.551667 134.161487,118.633869 C135.043123,118.759742 136.068699,119.60882 136.068699,121.212313 L136.068699,121.878934 C135.151078,121.801973 133.891599,121.676205 132.758067,122.054872 C131.408625,122.47478 130.95881,123.347431 130.95881,124.140169 C130.95881,125.599528 132.704089,126.299124 133.837621,126.460961 Z M133.963569,126.082574 C133.081933,125.956701 132.344238,125.220791 132.344238,124.319953 C132.344238,123.32903 133.099926,121.941529 136.068699,122.257286 L136.068699,124.058963 C136.068699,125.770557 134.773234,126.198171 133.963569,126.082574 Z M143.967435,127.709031 L143.967435,127.150511 L143.649724,127.10445 C142.72603,126.965919 142.564015,126.872927 142.564015,126.139387 L142.564015,115.00502 L139.973086,114.833292 L139.973086,115.391812 C141.232565,115.57163 141.376506,115.718299 141.376506,116.601121 L141.376506,125.969844 C141.376506,126.780598 141.178587,126.752341 139.973086,126.580229 L139.973086,127.138749 L141.97026,127.36984 L143.967435,127.709031 Z M157.641784,130.057715 C160.574572,130.476435 162.337844,128.223849 162.337844,126.133903 C162.337844,125.953735 162.337844,125.827618 162.103941,125.794223 C161.906022,125.765966 161.906022,125.874066 161.88803,126.051665 C161.744089,128.607513 159.818885,129.810024 157.857695,129.530021 C156.760149,129.373322 153.233606,128.25726 153.233606,122.888261 C153.233606,117.501245 156.742156,117.389597 157.839703,117.546296 C159.800892,117.826299 161.40223,119.694452 161.762082,122.376278 C161.798067,122.633651 161.798067,122.687701 162.049963,122.723665 C162.337844,122.764766 162.337844,122.710716 162.337844,122.332363 L162.337844,118.062388 C162.337844,117.756103 162.337844,117.629985 162.139926,117.601728 C162.067955,117.591453 161.995985,117.581177 161.852045,117.776828 L160.952416,118.981628 C160.286691,118.237977 159.369071,117.206127 157.641784,116.959519 C154.277175,116.479147 151.380372,118.930232 151.380372,122.605654 C151.380372,126.335126 154.295167,129.579911 157.641784,130.057715 Z M167.843569,131.31606 C170.020669,131.626889 171.837918,130.120697 171.837918,127.832567 C171.837918,125.52642 170.038662,123.359758 167.861561,123.048929 C165.612491,122.727824 163.867212,124.442476 163.867212,126.694573 C163.867212,129.018737 165.738439,131.015506 167.843569,131.31606 Z M167.861561,130.868209 C167.087881,130.757749 166.296208,130.266368 165.810409,129.368238 C165.398079,128.582692 165.363719,127.593745 165.360855,126.934786 L165.360595,126.763652 C165.360595,126.060998 165.360595,125.088092 165.792416,124.357006 C166.278216,123.597593 167.123866,123.339976 167.843569,123.442729 C168.635242,123.555758 169.408922,124.062587 169.876729,124.904098 C170.305551,125.675483 170.341287,126.617833 170.344265,127.296879 L170.344535,127.475219 C170.344535,128.123823 170.344535,129.096729 169.948699,129.832953 C169.552862,130.587193 168.76119,130.996651 167.861561,130.868209 Z M181.985725,133.13698 L181.985725,132.57846 C181.050112,132.44488 180.600297,132.380659 180.582305,131.837587 L180.58154,127.915011 C180.575419,126.72073 180.52033,126.207505 180.024535,125.560183 C179.772639,125.217934 179.178885,124.772827 178.135316,124.623834 C176.821859,124.436309 175.976208,125.090295 175.472416,126.135408 L175.472416,124.243647 L172.935465,124.079626 L172.935465,124.638146 C174.194944,124.817964 174.338885,124.964632 174.338885,125.847454 L174.338885,130.67595 C174.338885,131.486705 174.140967,131.458447 172.935465,131.286335 L172.935465,131.844856 L174.968625,132.081084 L176.983792,132.422843 L176.983792,131.864323 L176.666081,131.818263 C175.742386,131.679732 175.580372,131.58674 175.580372,130.853199 L175.580372,127.538113 C175.580372,125.664368 176.857844,124.837816 178.009368,125.002222 C179.1429,125.164058 179.340818,126.165221 179.340818,127.192177 L179.340818,131.390086 C179.340818,132.200841 179.1429,132.172584 177.937398,132.000472 L177.937398,132.558992 L179.970558,132.79522 L181.985725,133.13698 Z M186.609814,133.995355 C186.843717,134.02875 186.915688,133.876874 186.987658,133.706982 L189.344684,128.188047 C189.506617,127.796781 189.812491,127.06573 191,127.217256 L191,126.658736 C190.586171,126.635687 190.064387,126.579207 189.650558,126.520124 L188.085204,126.242585 L188.085204,126.801105 C188.750929,126.914169 188.948848,127.356812 188.948848,127.69913 C188.948848,127.861281 188.912862,127.928211 188.840892,128.11612 L187.005651,132.448376 L184.990483,127.133987 C184.882528,126.884355 184.882528,126.812288 184.882528,126.812288 C184.882528,126.343852 185.584238,126.444037 185.908104,126.490276 L185.908104,125.931756 L183.946914,125.705803 C183.461115,125.636445 182.741413,125.515674 182.201636,125.402576 L182.201636,125.961096 C183.335167,126.122932 183.407138,126.241308 183.641041,126.833223 L186.23197,133.599091 C186.339926,133.866738 186.375911,133.96196 186.609814,133.995355 Z" id="TemporalConv" fill="#000000" fill-rule="nonzero"></path>
        <path d="M121.297143,103.950062 C124.246667,104.307227 126.02,102.054439 126.02,99.9952093 C126.02,99.8176895 126.02,99.6934256 125.784762,99.6649401 C125.585714,99.640837 125.585714,99.7473488 125.567619,99.9226774 C125.422857,102.443681 123.486667,103.664885 121.514286,103.426045 C120.410476,103.292382 116.86381,102.259341 116.86381,96.9692511 C116.86381,91.6614095 120.392381,91.4851252 121.49619,91.6187881 C123.468571,91.8576283 125.079048,93.6680747 125.440952,96.3036874 C125.477143,96.5565975 125.477143,96.6098534 125.730476,96.6405302 C125.99368,96.6724021 126.017607,96.6312864 126.019782,96.3434636 L126.02,92.0423229 C126.02,91.7405393 126.02,91.6162754 125.820952,91.5921723 C125.748571,91.5834075 125.67619,91.5746427 125.531429,91.7701369 L124.626667,92.9742236 C123.957143,92.2540781 123.034286,91.2547283 121.297143,91.0443736 C117.913333,90.6346202 115,93.1044025 115,96.7258061 C115,100.400466 117.931429,103.5425 121.297143,103.950062 Z M131.557143,104.997198 C133.746667,105.262332 135.574286,103.743949 135.574286,101.489448 C135.574286,99.2171943 133.764762,97.1163652 131.575238,96.8512306 C129.313333,96.5773313 127.558095,98.2997511 127.558095,100.518748 C127.558095,102.808754 129.44,104.740828 131.557143,104.997198 Z M131.575238,104.555589 C130.797143,104.461368 130.000952,103.992164 129.512381,103.116411 C129.097698,102.350199 129.063142,101.376436 129.060262,100.727216 L129.06,100.558602 C129.06,99.8662746 129.06,98.9076677 129.494286,98.1791693 C129.982857,97.4217406 130.833333,97.1519352 131.557143,97.239583 C132.353333,97.3359955 133.131429,97.8207604 133.601905,98.6410665 C134.072381,99.4613727 134.072381,100.490987 134.072381,101.165563 C134.072381,101.804634 134.072381,102.763241 133.674286,103.496121 C133.27619,104.246754 132.48,104.665149 131.575238,104.555589 Z M145.78,106.524205 L145.78,105.973893 C144.839048,105.859951 144.386667,105.805171 144.368571,105.270421 L144.368571,101.879793 C144.368571,100.353123 144.368571,99.8028115 143.807619,99.0958132 C143.554286,98.7633529 142.957143,98.3360039 141.907619,98.2089146 C140.586667,98.0489574 139.73619,98.7093063 139.229524,99.7485755 L139.229524,97.8846178 L136.678095,97.7709311 L136.678095,98.3212425 C137.944762,98.4746261 138.089524,98.6164195 138.089524,99.4862664 L138.089524,104.243797 C138.089524,105.042636 137.890476,105.018533 136.678095,104.871723 L136.678095,105.422034 L138.722857,105.616383 L140.749524,105.915053 L140.749524,105.364741 L140.43,105.325359 C139.501034,105.206313 139.338095,105.117748 139.338095,104.394989 L139.338095,101.128625 C139.338095,99.2824193 140.622857,98.4438833 141.780952,98.5841198 C142.920952,98.722165 143.12,99.704875 143.12,100.716738 L143.12,104.852949 C143.12,105.651788 142.920952,105.627685 141.708571,105.480875 L141.708571,106.031186 L143.753333,106.225535 L145.78,106.524205 Z M149.869524,107.214686 C151.154286,107.370261 151.660952,106.171224 151.660952,105.035098 L151.660952,104.023235 L151.208571,103.968455 L151.208571,104.944814 C151.208571,106.25846 150.665714,106.8673 149.99619,106.786225 C148.889234,106.652181 148.792977,105.293825 148.784607,104.828898 L148.78381,99.7871516 L151.371429,100.100492 L151.371429,99.5501811 L148.78381,99.2368403 L148.78381,95.9704762 L148.331429,95.9156964 C148.313333,97.3691674 147.770476,99.2028933 145.997143,99.0591641 L145.997143,99.4497077 L147.535238,99.6359592 L147.535238,104.535505 C147.535238,106.718999 149.218095,107.135803 149.869524,107.214686 Z M155.189524,97.8822858 C155.804762,97.9567864 156.166667,97.5035549 156.166667,97.0597554 C156.166667,96.580452 155.750476,96.0685031 155.207619,96.0027672 C154.592381,95.9282666 154.230476,96.3814981 154.230476,96.8252976 C154.230476,97.304601 154.646667,97.8165499 155.189524,97.8822858 Z M157.161905,107.902466 L157.161905,107.352155 C156.02449,107.214423 155.904676,107.119406 155.895844,106.512611 L155.895238,99.902708 L153.361905,99.7912125 L153.361905,100.341524 C154.538095,100.483952 154.700952,100.610184 154.700952,101.480031 L154.700952,106.255313 C154.700952,107.054152 154.501905,107.030049 153.289524,106.883239 L153.289524,107.43355 L155.28,107.621326 C155.913333,107.698018 156.546667,107.810214 157.161905,107.902466 Z M167.40381,109.142682 L167.40381,108.592371 C166.462857,108.478429 166.010476,108.423649 165.992381,107.888898 L165.992381,104.498271 C165.992381,102.9716 165.992381,102.421289 165.431429,101.714291 C165.178095,101.38183 164.580952,100.954481 163.531429,100.827392 C162.210476,100.667435 161.36,101.327784 160.853333,102.367053 L160.853333,100.503095 L158.301905,100.389409 L158.301905,100.93972 C159.568571,101.093104 159.713333,101.234897 159.713333,102.104744 L159.713333,106.862274 C159.713333,107.661113 159.514286,107.63701 158.301905,107.4902 L158.301905,108.040511 L160.346667,108.23486 L162.373333,108.53353 L162.373333,107.983219 L162.053809,107.943837 C161.124844,107.824791 160.961905,107.736226 160.961905,107.013467 L160.961905,103.747103 C160.961905,101.900897 162.246667,101.062361 163.404762,101.202597 C164.544762,101.340643 164.74381,102.323353 164.74381,103.335215 L164.74381,107.471426 C164.74381,108.270265 164.544762,108.246162 163.332381,108.099352 L163.332381,108.649663 L165.377143,108.844013 L167.40381,109.142682 Z M174.352381,110.179373 L176.958095,110.299633 L176.958095,109.749322 C175.749004,109.60291 175.562145,109.467059 175.547656,108.69847 L175.546667,102.282345 L172.886667,102.155511 L172.886667,102.705823 C174.153333,102.859206 174.298095,103.001 174.298095,103.870847 L174.298095,107.030699 C174.298095,108.575121 173.429524,109.677078 172.108571,109.517121 C170.649371,109.340423 170.524297,108.556347 170.516626,107.677201 L170.51619,101.673193 L167.85619,101.546359 L167.85619,102.096671 C169.267619,102.267584 169.267619,102.32084 169.267619,103.900766 L169.268132,106.80291 C169.2766,108.12865 169.424789,109.582679 172.018095,109.896709 C173.031429,110.019416 173.827619,109.618773 174.352381,108.581695 L174.352381,110.179373 Z M180.812381,110.961629 C182.006667,111.106248 182.839048,110.496964 183.182857,109.704254 C183.255238,110.423097 183.74381,111.227843 184.594286,111.330829 C184.974286,111.376844 186.078095,111.261979 186.078095,109.824069 L186.078095,108.829958 L185.625714,108.775178 L185.625714,109.769289 C185.625714,110.798904 185.173333,110.850636 184.974286,110.826533 C184.377143,110.754223 184.304762,109.94662 184.304762,109.85786 L184.304762,106.307464 C184.304762,105.561881 184.304762,104.869554 183.653333,104.133847 C182.947619,103.356064 182.042857,102.962472 181.174286,102.857295 C179.690476,102.677617 178.441905,103.360768 178.441905,104.532398 C178.441905,105.064958 178.80381,105.410565 179.274286,105.467536 C179.780952,105.52889 180.106667,105.213291 180.106667,104.75174 C180.106667,104.538716 180.01619,103.941945 179.18381,103.823398 C179.672381,103.261241 180.559048,103.173338 181.138095,103.243456 C182.024762,103.350825 183.05619,104.16805 183.05619,105.747976 L183.05619,106.404799 C182.133333,106.346304 180.866667,106.246177 179.726667,106.640691 C178.369524,107.079918 177.917143,107.948241 177.917143,108.729328 C177.917143,110.167239 179.672381,110.823584 180.812381,110.961629 Z M180.939048,110.586424 C180.052381,110.479056 179.310476,109.767897 179.310476,108.880298 C179.310476,107.90394 180.070476,106.522555 183.05619,106.777591 L183.05619,108.552789 C183.05619,110.239227 181.753333,110.685028 180.939048,110.586424 Z M191,112 L191,111.449689 L190.680476,111.410307 C189.751511,111.29126 189.588571,111.202696 189.588571,110.479936 L189.588571,99.5092137 L186.982857,99.3889535 L186.982857,99.9392648 C188.249524,100.092648 188.394286,100.234442 188.394286,101.104289 L188.394286,110.335318 C188.394286,111.134157 188.195238,111.110054 186.982857,110.963243 L186.982857,111.513555 L188.991429,111.703521 L191,112 Z" id="Continual" fill="#000000" fill-rule="nonzero"></path>
        <path d="M153.420354,262.592441 C154.550885,262.092538 155.789823,261.077138 156.316372,259.783301 C156.517699,260.089906 157.137168,260.535312 157.307522,260.459984 C157.446903,260.398353 157.446903,260.254488 157.446903,259.98474 L157.446903,256.855674 C157.446903,256.154332 157.50885,256.037024 158.515487,255.591905 L158.515487,255.034428 L156.626106,255.923832 L156.22785,256.09961 C155.553042,256.39654 154.588898,256.814844 154.132743,256.972408 L154.132743,257.529885 L154.628319,257.310749 C156.022124,256.694431 156.068584,256.871701 156.068584,257.537078 L156.068584,258.687998 C156.068584,260.634973 154.230706,261.663791 153.716485,261.903417 L153.668142,261.925396 C152.661504,262.370515 149.595133,263.097006 149.595133,257.738031 C149.595133,252.361072 152.646018,250.418576 153.575221,250.007697 C155.232301,249.274962 156.641593,250.270278 156.951327,252.77684 C156.982301,253.014908 156.982301,253.068857 157.199115,252.972985 C157.446903,252.863418 157.446903,252.809468 157.446903,252.431822 L157.446903,248.169818 C157.446903,247.864105 157.446903,247.738223 157.276549,247.813551 C157.214602,247.840943 157.152655,247.868335 157.028761,248.138916 L156.254425,249.812068 C155.75885,249.455743 154.922566,248.854445 153.389381,249.532395 C150.50885,250.80612 148,254.75683 148,258.443373 C148,262.129916 150.477876,263.893558 153.420354,262.592441 Z M163.455752,257.759318 L163.455752,257.20184 L163.130531,257.345648 C162.036605,257.829365 161.958659,257.683591 161.953834,257.106275 L161.95354,254.251484 C161.95354,252.471153 162.603982,250.583039 163.780973,250.062592 C163.889381,250.014656 163.920354,250.00096 163.951327,250.005247 C163.904867,250.043774 163.595133,250.396531 163.595133,250.864093 C163.595133,251.367621 163.920354,251.49356 164.261062,251.342905 C164.539823,251.219641 164.926991,250.832644 164.926991,250.257183 C164.926991,249.681723 164.446903,249.372499 163.780973,249.666963 C162.650442,250.166866 162.09292,251.618263 161.876106,252.48741 L161.876106,250.509265 L159.723451,251.658949 L159.723451,252.216427 C160.807522,251.737068 160.931416,251.808166 160.931416,252.689339 L160.931416,257.508821 C160.931416,258.318062 160.761062,258.39339 159.723451,258.852205 L159.723451,259.409682 L161.488938,258.575062 C162.108407,258.301143 162.836283,257.979288 163.455752,257.759318 Z M168.334071,255.800017 C169.356195,255.34805 170.068584,254.313717 170.362832,253.338398 C170.424779,254.030331 170.84292,254.600728 171.570796,254.278872 C171.896018,254.135065 172.840708,253.465574 172.840708,252.00894 L172.840708,251.001884 L172.45354,251.173083 L172.45354,252.180139 C172.45354,253.223161 172.066372,253.50226 171.896018,253.577587 C171.384956,253.803571 171.323009,253.021722 171.323009,252.931806 L171.323009,249.335178 C171.323009,248.579886 171.323009,247.878544 170.765487,247.459695 C170.161504,247.025424 169.387168,247.080093 168.643805,247.408797 C167.373894,247.970331 166.30531,249.28805 166.30531,250.474937 C166.30531,251.014431 166.615044,251.183185 167.017699,251.005137 C167.451327,250.813394 167.730088,250.330467 167.730088,249.862906 C167.730088,249.647108 167.652655,249.087904 166.940265,249.384928 C167.358407,248.570623 168.117257,248.037257 168.612832,247.818122 C169.371681,247.48257 170.254425,247.793578 170.254425,249.394077 L170.254425,250.059453 C169.464602,250.46265 168.380531,250.995958 167.404867,251.966875 C166.243363,253.091901 165.856195,254.198224 165.856195,254.989482 C165.856195,256.446116 167.358407,256.23144 168.334071,255.800017 Z M168.442478,255.356452 C167.683628,255.692003 167.048673,255.343361 167.048673,254.444204 C167.048673,253.455131 167.699115,251.674915 170.254425,250.437099 L170.254425,252.235413 C170.254425,253.943811 169.139381,255.048293 168.442478,255.356452 Z M177.022124,255.249212 L177.022124,254.691735 L176.748661,254.811957 C175.95361,255.156874 175.814159,255.148807 175.814159,254.416636 L175.814159,251.233621 C175.891593,251.487111 176.542035,252.170585 177.719027,251.650138 C179.561947,250.835228 181.172566,248.36069 181.172566,246.040865 C181.172566,243.757006 179.670354,242.64093 177.935841,243.407905 C176.727876,243.942047 176.077434,245.020921 175.767699,245.55351 L175.767699,244.366622 L173.537611,245.550547 L173.537611,246.108024 C174.637168,245.621817 174.745575,245.68178 174.745575,246.473038 L174.745575,254.889147 C174.745575,255.698388 174.575221,255.773716 173.537611,256.232531 L173.537611,256.790008 L175.272124,255.969085 L177.022124,255.249212 Z M177.65708,251.281901 C177.037611,251.55582 176.449115,251.456381 176.030973,250.903968 C175.83825,250.653502 175.816836,250.611464 175.814457,250.352611 L175.814159,246.234308 C176.263274,245.118576 177.022124,244.261514 177.811947,243.912267 C178.942478,243.412364 179.887168,244.577153 179.887168,246.609248 C179.887168,248.785208 178.803097,250.77515 177.65708,251.281901 Z M190,246.021872 L190,245.464394 C189.19469,245.82049 188.807522,245.991689 188.792035,245.459043 L188.792035,242.024264 C188.792035,240.477714 188.792035,239.920236 188.311947,239.485131 C188.095133,239.275289 187.584071,239.14161 186.685841,239.538793 C185.384956,240.114024 184.70354,241.494324 184.455752,242.251284 L184.440265,242.258132 L184.440265,236 L182.210177,237.183924 L182.210177,237.741402 C183.294248,237.262043 183.418142,237.333141 183.418142,238.214315 L183.418142,247.565547 C183.418142,248.374788 183.247788,248.450116 182.210177,248.908931 L182.210177,249.466408 L183.960177,248.638636 L185.69469,247.925611 L185.69469,247.368134 L185.421227,247.488356 C184.626176,247.833274 184.486726,247.825206 184.486726,247.093036 L184.486726,243.784138 C184.486726,241.913892 185.586283,240.420629 186.577434,239.982358 C187.553097,239.550935 187.723451,240.446697 187.723451,241.471736 L187.723451,245.661807 C187.723451,246.471048 187.553097,246.546376 186.515487,247.005191 L186.515487,247.562668 L188.265487,246.734897 L190,246.021872 Z M153.389381,287.582718 C155.913717,286.466497 157.431416,283.295738 157.431416,281.209694 C157.431416,281.029863 157.431416,280.903981 157.230088,280.993004 C157.059735,281.068332 157.059735,281.176231 157.044248,281.36291 C156.920354,283.989283 155.263274,286.196635 153.575221,286.943065 C152.630531,287.360792 149.595133,288.091571 149.595133,282.732595 C149.595133,277.355637 152.615044,275.408853 153.559735,274.991126 C155.247788,274.244696 156.626106,275.271691 156.935841,277.760269 C156.966814,277.998337 156.966814,278.052287 157.183628,277.956415 C157.40889,277.856808 157.429368,277.803166 157.43123,277.510505 L157.431416,273.153248 C157.431416,272.847534 157.431416,272.721652 157.261062,272.79698 C157.199115,272.824372 157.137168,272.851764 157.013274,273.122346 L156.238938,274.795497 C155.665929,274.40148 154.876106,273.85157 153.389381,274.508976 C150.493363,275.78955 148,279.751394 148,283.419955 C148,287.142464 150.50885,288.856443 153.389381,287.582718 Z M162.170354,283.502096 C164.044248,282.67349 165.608407,280.219496 165.608407,277.935638 C165.608407,275.633796 164.059735,274.412382 162.185841,275.240988 C160.25,276.096986 158.747788,278.721402 158.747788,280.969295 C158.747788,283.28912 160.358407,284.303311 162.170354,283.502096 Z M162.185841,283.04567 C161.519912,283.340133 160.838496,283.263799 160.420354,282.62147 C160.06545,282.053083 160.035875,281.083957 160.03341,280.427725 L160.033186,280.257047 C160.033186,279.555705 160.033186,278.584615 160.404867,277.629005 C160.823009,276.616885 161.550885,275.917384 162.170354,275.643465 C162.85177,275.342153 163.517699,275.443319 163.920354,276.038547 C164.323009,276.633774 164.323009,277.676796 164.323009,278.360155 C164.323009,279.007548 164.323009,279.978638 163.982301,280.920551 C163.641593,281.880448 162.960177,282.703271 162.185841,283.04567 Z M174.34292,277.921766 L174.34292,277.364288 C173.537611,277.720384 173.150442,277.891583 173.134956,277.358937 L173.134956,273.924158 C173.134956,272.377608 173.134956,271.82013 172.654867,271.385025 C172.438053,271.175183 171.926991,271.041504 171.028761,271.438687 C169.89823,271.93859 169.170354,273.03372 168.736726,274.340419 L168.736726,272.452189 L166.553097,273.615569 L166.553097,274.173047 C167.637168,273.693688 167.761062,273.764786 167.761062,274.64596 L167.761062,279.465441 C167.761062,280.274682 167.590708,280.35001 166.553097,280.808825 L166.553097,281.366302 L168.303097,280.53853 L170.037611,279.825506 L170.037611,279.268028 L169.764147,279.38825 C168.969097,279.733168 168.829646,279.7251 168.829646,278.99293 L168.829646,275.684032 C168.829646,273.813786 169.929204,272.320523 170.920354,271.882252 C171.896018,271.450829 172.066372,272.346591 172.066372,273.37163 L172.066372,277.561701 C172.066372,278.370942 171.896018,278.44627 170.858407,278.905085 L170.858407,279.462562 L172.608407,278.634791 L174.34292,277.921766 Z M178.323009,276.359648 C178.524336,276.270624 178.586283,276.081384 178.64823,275.874161 L180.676991,269.132555 C180.816372,268.657311 181.079646,267.76762 182.10177,267.29767 L182.10177,266.740193 C181.745575,266.933663 181.29646,267.150237 180.940265,267.307741 L179.59292,267.849566 L179.59292,268.407043 C180.165929,268.171651 180.336283,268.509936 180.336283,268.851615 C180.336283,269.013463 180.30531,269.099092 180.243363,269.324298 L178.663717,274.608493 L176.929204,270.358172 C176.836283,270.165479 176.836283,270.093546 176.836283,270.093546 C176.836283,269.625985 177.440265,269.358913 177.719027,269.23565 L177.719027,268.678172 L176.030973,269.478552 C175.612832,269.663448 174.993363,269.919384 174.528761,270.088857 L174.528761,270.646335 C175.504425,270.214911 175.566372,270.295418 175.767699,270.763872 L177.997788,276.161776 C178.090708,276.372452 178.121681,276.448672 178.323009,276.359648 Z" id="GraphConv" fill="#000000" fill-rule="nonzero"></path>
        <path d="M93.420354,253.592441 C94.550885,253.092538 95.789823,252.077138 96.3163717,250.783301 C96.5176991,251.089906 97.1371681,251.535312 97.3075221,251.459984 C97.4469027,251.398353 97.4469027,251.254488 97.4469027,250.98474 L97.4469027,247.855674 C97.4469027,247.154332 97.5088496,247.037024 98.5154867,246.591905 L98.5154867,246.034428 L96.6261062,246.923832 L96.2278495,247.09961 C95.5530425,247.39654 94.5888978,247.814844 94.1327434,247.972408 L94.1327434,248.529885 L94.6283186,248.310749 C96.0221239,247.694431 96.0685841,247.871701 96.0685841,248.537078 L96.0685841,249.687998 C96.0685841,251.634973 94.2307055,252.663791 93.7164854,252.903417 L93.6681416,252.925396 C92.6615044,253.370515 89.5951327,254.097006 89.5951327,248.738031 C89.5951327,243.361072 92.6460177,241.418576 93.5752212,241.007697 C95.2323009,240.274962 96.6415929,241.270278 96.9513274,243.77684 C96.9823009,244.014908 96.9823009,244.068857 97.199115,243.972985 C97.4469027,243.863418 97.4469027,243.809468 97.4469027,243.431822 L97.4469027,239.169818 C97.4469027,238.864105 97.4469027,238.738223 97.2765487,238.813551 C97.2146018,238.840943 97.1526549,238.868335 97.0287611,239.138916 L96.2544248,240.812068 C95.7588496,240.455743 94.9225664,239.854445 93.3893805,240.532395 C90.5088496,241.80612 88,245.75683 88,249.443373 C88,253.129916 90.4778761,254.893558 93.420354,253.592441 Z M103.455752,248.759318 L103.455752,248.20184 L103.130531,248.345648 C102.036605,248.829365 101.958659,248.683591 101.953834,248.106275 L101.95354,245.251484 C101.95354,243.471153 102.603982,241.583039 103.780973,241.062592 C103.889381,241.014656 103.920354,241.00096 103.951327,241.005247 C103.904867,241.043774 103.595133,241.396531 103.595133,241.864093 C103.595133,242.367621 103.920354,242.49356 104.261062,242.342905 C104.539823,242.219641 104.926991,241.832644 104.926991,241.257183 C104.926991,240.681723 104.446903,240.372499 103.780973,240.666963 C102.650442,241.166866 102.09292,242.618263 101.876106,243.48741 L101.876106,241.509265 L99.7234513,242.658949 L99.7234513,243.216427 C100.807522,242.737068 100.931416,242.808166 100.931416,243.689339 L100.931416,248.508821 C100.931416,249.318062 100.761062,249.39339 99.7234513,249.852205 L99.7234513,250.409682 L101.488938,249.575062 C102.108407,249.301143 102.836283,248.979288 103.455752,248.759318 Z M108.334071,246.800017 C109.356195,246.34805 110.068584,245.313717 110.362832,244.338398 C110.424779,245.030331 110.84292,245.600728 111.570796,245.278872 C111.896018,245.135065 112.840708,244.465574 112.840708,243.00894 L112.840708,242.001884 L112.45354,242.173083 L112.45354,243.180139 C112.45354,244.223161 112.066372,244.50226 111.896018,244.577587 C111.384956,244.803571 111.323009,244.021722 111.323009,243.931806 L111.323009,240.335178 C111.323009,239.579886 111.323009,238.878544 110.765487,238.459695 C110.161504,238.025424 109.387168,238.080093 108.643805,238.408797 C107.373894,238.970331 106.30531,240.28805 106.30531,241.474937 C106.30531,242.014431 106.615044,242.183185 107.017699,242.005137 C107.451327,241.813394 107.730088,241.330467 107.730088,240.862906 C107.730088,240.647108 107.652655,240.087904 106.940265,240.384928 C107.358407,239.570623 108.117257,239.037257 108.612832,238.818122 C109.371681,238.48257 110.254425,238.793578 110.254425,240.394077 L110.254425,241.059453 C109.464602,241.46265 108.380531,241.995958 107.404867,242.966875 C106.243363,244.091901 105.856195,245.198224 105.856195,245.989482 C105.856195,247.446116 107.358407,247.23144 108.334071,246.800017 Z M108.442478,246.356452 C107.683628,246.692003 107.048673,246.343361 107.048673,245.444204 C107.048673,244.455131 107.699115,242.674915 110.254425,241.437099 L110.254425,243.235413 C110.254425,244.943811 109.139381,246.048293 108.442478,246.356452 Z M117.022124,246.249212 L117.022124,245.691735 L116.748661,245.811957 C115.95361,246.156874 115.814159,246.148807 115.814159,245.416636 L115.814159,242.233621 C115.891593,242.487111 116.542035,243.170585 117.719027,242.650138 C119.561947,241.835228 121.172566,239.36069 121.172566,237.040865 C121.172566,234.757006 119.670354,233.64093 117.935841,234.407905 C116.727876,234.942047 116.077434,236.020921 115.767699,236.55351 L115.767699,235.366622 L113.537611,236.550547 L113.537611,237.108024 C114.637168,236.621817 114.745575,236.68178 114.745575,237.473038 L114.745575,245.889147 C114.745575,246.698388 114.575221,246.773716 113.537611,247.232531 L113.537611,247.790008 L115.272124,246.969085 L117.022124,246.249212 Z M117.65708,242.281901 C117.037611,242.55582 116.449115,242.456381 116.030973,241.903968 C115.83825,241.653502 115.816836,241.611464 115.814457,241.352611 L115.814159,237.234308 C116.263274,236.118576 117.022124,235.261514 117.811947,234.912267 C118.942478,234.412364 119.887168,235.577153 119.887168,237.609248 C119.887168,239.785208 118.803097,241.77515 117.65708,242.281901 Z M130,237.021872 L130,236.464394 C129.19469,236.82049 128.807522,236.991689 128.792035,236.459043 L128.792035,233.024264 C128.792035,231.477714 128.792035,230.920236 128.311947,230.485131 C128.095133,230.275289 127.584071,230.14161 126.685841,230.538793 C125.384956,231.114024 124.70354,232.494324 124.455752,233.251284 L124.440265,233.258132 L124.440265,227 L122.210177,228.183924 L122.210177,228.741402 C123.294248,228.262043 123.418142,228.333141 123.418142,229.214315 L123.418142,238.565547 C123.418142,239.374788 123.247788,239.450116 122.210177,239.908931 L122.210177,240.466408 L123.960177,239.638636 L125.69469,238.925611 L125.69469,238.368134 L125.421227,238.488356 C124.626176,238.833274 124.486726,238.825206 124.486726,238.093036 L124.486726,234.784138 C124.486726,232.913892 125.586283,231.420629 126.577434,230.982358 C127.553097,230.550935 127.723451,231.446697 127.723451,232.471736 L127.723451,236.661807 C127.723451,237.471048 127.553097,237.546376 126.515487,238.005191 L126.515487,238.562668 L128.265487,237.734897 L130,237.021872 Z M93.3893805,278.582718 C95.9137168,277.466497 97.4314159,274.295738 97.4314159,272.209694 C97.4314159,272.029863 97.4314159,271.903981 97.2300885,271.993004 C97.0597345,272.068332 97.0597345,272.176231 97.0442478,272.36291 C96.920354,274.989283 95.2632743,277.196635 93.5752212,277.943065 C92.630531,278.360792 89.5951327,279.091571 89.5951327,273.732595 C89.5951327,268.355637 92.6150442,266.408853 93.5597345,265.991126 C95.2477876,265.244696 96.6261062,266.271691 96.9358407,268.760269 C96.9668142,268.998337 96.9668142,269.052287 97.1836283,268.956415 C97.4088898,268.856808 97.4293681,268.803166 97.4312298,268.510505 L97.4314159,264.153248 C97.4314159,263.847534 97.4314159,263.721652 97.2610619,263.79698 C97.199115,263.824372 97.1371681,263.851764 97.0132743,264.122346 L96.2389381,265.795497 C95.6659292,265.40148 94.8761062,264.85157 93.3893805,265.508976 C90.4933628,266.78955 88,270.751394 88,274.419955 C88,278.142464 90.5088496,279.856443 93.3893805,278.582718 Z M102.170354,274.502096 C104.044248,273.67349 105.608407,271.219496 105.608407,268.935638 C105.608407,266.633796 104.059735,265.412382 102.185841,266.240988 C100.25,267.096986 98.7477876,269.721402 98.7477876,271.969295 C98.7477876,274.28912 100.358407,275.303311 102.170354,274.502096 Z M102.185841,274.04567 C101.519912,274.340133 100.838496,274.263799 100.420354,273.62147 C100.06545,273.053083 100.035875,272.083957 100.03341,271.427725 L100.033186,271.257047 C100.033186,270.555705 100.033186,269.584615 100.404867,268.629005 C100.823009,267.616885 101.550885,266.917384 102.170354,266.643465 C102.85177,266.342153 103.517699,266.443319 103.920354,267.038547 C104.323009,267.633774 104.323009,268.676796 104.323009,269.360155 C104.323009,270.007548 104.323009,270.978638 103.982301,271.920551 C103.641593,272.880448 102.960177,273.703271 102.185841,274.04567 Z M114.34292,268.921766 L114.34292,268.364288 C113.537611,268.720384 113.150442,268.891583 113.134956,268.358937 L113.134956,264.924158 C113.134956,263.377608 113.134956,262.82013 112.654867,262.385025 C112.438053,262.175183 111.926991,262.041504 111.028761,262.438687 C109.89823,262.93859 109.170354,264.03372 108.736726,265.340419 L108.736726,263.452189 L106.553097,264.615569 L106.553097,265.173047 C107.637168,264.693688 107.761062,264.764786 107.761062,265.64596 L107.761062,270.465441 C107.761062,271.274682 107.590708,271.35001 106.553097,271.808825 L106.553097,272.366302 L108.303097,271.53853 L110.037611,270.825506 L110.037611,270.268028 L109.764147,270.38825 C108.969097,270.733168 108.829646,270.7251 108.829646,269.99293 L108.829646,266.684032 C108.829646,264.813786 109.929204,263.320523 110.920354,262.882252 C111.896018,262.450829 112.066372,263.346591 112.066372,264.37163 L112.066372,268.561701 C112.066372,269.370942 111.896018,269.44627 110.858407,269.905085 L110.858407,270.462562 L112.608407,269.634791 L114.34292,268.921766 Z M118.323009,267.359648 C118.524336,267.270624 118.586283,267.081384 118.64823,266.874161 L120.676991,260.132555 C120.816372,259.657311 121.079646,258.76762 122.10177,258.29767 L122.10177,257.740193 C121.745575,257.933663 121.29646,258.150237 120.940265,258.307741 L119.59292,258.849566 L119.59292,259.407043 C120.165929,259.171651 120.336283,259.509936 120.336283,259.851615 C120.336283,260.013463 120.30531,260.099092 120.243363,260.324298 L118.663717,265.608493 L116.929204,261.358172 C116.836283,261.165479 116.836283,261.093546 116.836283,261.093546 C116.836283,260.625985 117.440265,260.358913 117.719027,260.23565 L117.719027,259.678172 L116.030973,260.478552 C115.612832,260.663448 114.993363,260.919384 114.528761,261.088857 L114.528761,261.646335 C115.504425,261.214911 115.566372,261.295418 115.767699,261.763872 L117.997788,267.161776 C118.090708,267.372452 118.121681,267.448672 118.323009,267.359648 Z" id="GraphConv" fill="#000000" fill-rule="nonzero"></path>
        <path d="M33.420354,244.592441 C34.550885,244.092538 35.789823,243.077138 36.3163717,241.783301 C36.5176991,242.089906 37.1371681,242.535312 37.3075221,242.459984 C37.4469027,242.398353 37.4469027,242.254488 37.4469027,241.98474 L37.4469027,238.855674 C37.4469027,238.154332 37.5088496,238.037024 38.5154867,237.591905 L38.5154867,237.034428 L36.6261062,237.923832 L36.2278495,238.09961 C35.5530425,238.39654 34.5888978,238.814844 34.1327434,238.972408 L34.1327434,239.529885 L34.6283186,239.310749 C36.0221239,238.694431 36.0685841,238.871701 36.0685841,239.537078 L36.0685841,240.687998 C36.0685841,242.634973 34.2307055,243.663791 33.7164854,243.903417 L33.6681416,243.925396 C32.6615044,244.370515 29.5951327,245.097006 29.5951327,239.738031 C29.5951327,234.361072 32.6460177,232.418576 33.5752212,232.007697 C35.2323009,231.274962 36.6415929,232.270278 36.9513274,234.77684 C36.9823009,235.014908 36.9823009,235.068857 37.199115,234.972985 C37.4469027,234.863418 37.4469027,234.809468 37.4469027,234.431822 L37.4469027,230.169818 C37.4469027,229.864105 37.4469027,229.738223 37.2765487,229.813551 C37.2146018,229.840943 37.1526549,229.868335 37.0287611,230.138916 L36.2544248,231.812068 C35.7588496,231.455743 34.9225664,230.854445 33.3893805,231.532395 C30.5088496,232.80612 28,236.75683 28,240.443373 C28,244.129916 30.4778761,245.893558 33.420354,244.592441 Z M43.4557522,239.759318 L43.4557522,239.20184 L43.130531,239.345648 C42.036605,239.829365 41.9586594,239.683591 41.9538336,239.106275 L41.9535398,236.251484 C41.9535398,234.471153 42.6039823,232.583039 43.7809735,232.062592 C43.8893805,232.014656 43.920354,232.00096 43.9513274,232.005247 C43.9048673,232.043774 43.5951327,232.396531 43.5951327,232.864093 C43.5951327,233.367621 43.920354,233.49356 44.2610619,233.342905 C44.539823,233.219641 44.9269912,232.832644 44.9269912,232.257183 C44.9269912,231.681723 44.4469027,231.372499 43.7809735,231.666963 C42.6504425,232.166866 42.0929204,233.618263 41.8761062,234.48741 L41.8761062,232.509265 L39.7234513,233.658949 L39.7234513,234.216427 C40.8075221,233.737068 40.9314159,233.808166 40.9314159,234.689339 L40.9314159,239.508821 C40.9314159,240.318062 40.7610619,240.39339 39.7234513,240.852205 L39.7234513,241.409682 L41.4889381,240.575062 C42.1084071,240.301143 42.8362832,239.979288 43.4557522,239.759318 Z M48.3340708,237.800017 C49.3561947,237.34805 50.0685841,236.313717 50.3628319,235.338398 C50.4247788,236.030331 50.8429204,236.600728 51.5707965,236.278872 C51.8960177,236.135065 52.840708,235.465574 52.840708,234.00894 L52.840708,233.001884 L52.4535398,233.173083 L52.4535398,234.180139 C52.4535398,235.223161 52.0663717,235.50226 51.8960177,235.577587 C51.3849558,235.803571 51.3230088,235.021722 51.3230088,234.931806 L51.3230088,231.335178 C51.3230088,230.579886 51.3230088,229.878544 50.7654867,229.459695 C50.1615044,229.025424 49.3871681,229.080093 48.6438053,229.408797 C47.3738938,229.970331 46.3053097,231.28805 46.3053097,232.474937 C46.3053097,233.014431 46.6150442,233.183185 47.0176991,233.005137 C47.4513274,232.813394 47.7300885,232.330467 47.7300885,231.862906 C47.7300885,231.647108 47.6526549,231.087904 46.9402655,231.384928 C47.3584071,230.570623 48.1172566,230.037257 48.6128319,229.818122 C49.3716814,229.48257 50.2544248,229.793578 50.2544248,231.394077 L50.2544248,232.059453 C49.4646018,232.46265 48.380531,232.995958 47.4048673,233.966875 C46.2433628,235.091901 45.8561947,236.198224 45.8561947,236.989482 C45.8561947,238.446116 47.3584071,238.23144 48.3340708,237.800017 Z M48.4424779,237.356452 C47.6836283,237.692003 47.0486726,237.343361 47.0486726,236.444204 C47.0486726,235.455131 47.699115,233.674915 50.2544248,232.437099 L50.2544248,234.235413 C50.2544248,235.943811 49.1393805,237.048293 48.4424779,237.356452 Z M57.0221239,237.249212 L57.0221239,236.691735 L56.7486605,236.811957 C55.9536101,237.156874 55.8141593,237.148807 55.8141593,236.416636 L55.8141593,233.233621 C55.8915929,233.487111 56.5420354,234.170585 57.7190265,233.650138 C59.5619469,232.835228 61.1725664,230.36069 61.1725664,228.040865 C61.1725664,225.757006 59.670354,224.64093 57.9358407,225.407905 C56.7278761,225.942047 56.0774336,227.020921 55.7676991,227.55351 L55.7676991,226.366622 L53.5376106,227.550547 L53.5376106,228.108024 C54.6371681,227.621817 54.7455752,227.68178 54.7455752,228.473038 L54.7455752,236.889147 C54.7455752,237.698388 54.5752212,237.773716 53.5376106,238.232531 L53.5376106,238.790008 L55.2721239,237.969085 L57.0221239,237.249212 Z M57.6570796,233.281901 C57.0376106,233.55582 56.449115,233.456381 56.0309735,232.903968 C55.8382498,232.653502 55.816836,232.611464 55.8144567,232.352611 L55.8141593,228.234308 C56.2632743,227.118576 57.0221239,226.261514 57.8119469,225.912267 C58.9424779,225.412364 59.8871681,226.577153 59.8871681,228.609248 C59.8871681,230.785208 58.8030973,232.77515 57.6570796,233.281901 Z M70,228.021872 L70,227.464394 C69.1946903,227.82049 68.8075221,227.991689 68.7920354,227.459043 L68.7920354,224.024264 C68.7920354,222.477714 68.7920354,221.920236 68.3119469,221.485131 C68.0951327,221.275289 67.5840708,221.14161 66.6858407,221.538793 C65.3849558,222.114024 64.7035398,223.494324 64.4557522,224.251284 L64.4402655,224.258132 L64.4402655,218 L62.210177,219.183924 L62.210177,219.741402 C63.2942478,219.262043 63.4181416,219.333141 63.4181416,220.214315 L63.4181416,229.565547 C63.4181416,230.374788 63.2477876,230.450116 62.210177,230.908931 L62.210177,231.466408 L63.960177,230.638636 L65.6946903,229.925611 L65.6946903,229.368134 L65.4212269,229.488356 C64.6261764,229.833274 64.4867257,229.825206 64.4867257,229.093036 L64.4867257,225.784138 C64.4867257,223.913892 65.5862832,222.420629 66.5774336,221.982358 C67.5530973,221.550935 67.7234513,222.446697 67.7234513,223.471736 L67.7234513,227.661807 C67.7234513,228.471048 67.5530973,228.546376 66.5154867,229.005191 L66.5154867,229.562668 L68.2654867,228.734897 L70,228.021872 Z M33.3893805,269.582718 C35.9137168,268.466497 37.4314159,265.295738 37.4314159,263.209694 C37.4314159,263.029863 37.4314159,262.903981 37.2300885,262.993004 C37.0597345,263.068332 37.0597345,263.176231 37.0442478,263.36291 C36.920354,265.989283 35.2632743,268.196635 33.5752212,268.943065 C32.630531,269.360792 29.5951327,270.091571 29.5951327,264.732595 C29.5951327,259.355637 32.6150442,257.408853 33.5597345,256.991126 C35.2477876,256.244696 36.6261062,257.271691 36.9358407,259.760269 C36.9668142,259.998337 36.9668142,260.052287 37.1836283,259.956415 C37.4088898,259.856808 37.4293681,259.803166 37.4312298,259.510505 L37.4314159,255.153248 C37.4314159,254.847534 37.4314159,254.721652 37.2610619,254.79698 C37.199115,254.824372 37.1371681,254.851764 37.0132743,255.122346 L36.2389381,256.795497 C35.6659292,256.40148 34.8761062,255.85157 33.3893805,256.508976 C30.4933628,257.78955 28,261.751394 28,265.419955 C28,269.142464 30.5088496,270.856443 33.3893805,269.582718 Z M42.170354,265.502096 C44.0442478,264.67349 45.6084071,262.219496 45.6084071,259.935638 C45.6084071,257.633796 44.0597345,256.412382 42.1858407,257.240988 C40.25,258.096986 38.7477876,260.721402 38.7477876,262.969295 C38.7477876,265.28912 40.3584071,266.303311 42.170354,265.502096 Z M42.1858407,265.04567 C41.5199115,265.340133 40.8384956,265.263799 40.420354,264.62147 C40.0654499,264.053083 40.0358745,263.083957 40.0334099,262.427725 L40.0331858,262.257047 C40.0331858,261.555705 40.0331858,260.584615 40.4048673,259.629005 C40.8230088,258.616885 41.550885,257.917384 42.170354,257.643465 C42.8517699,257.342153 43.5176991,257.443319 43.920354,258.038547 C44.3230088,258.633774 44.3230088,259.676796 44.3230088,260.360155 C44.3230088,261.007548 44.3230088,261.978638 43.9823009,262.920551 C43.6415929,263.880448 42.960177,264.703271 42.1858407,265.04567 Z M54.3429204,259.921766 L54.3429204,259.364288 C53.5376106,259.720384 53.1504425,259.891583 53.1349558,259.358937 L53.1349558,255.924158 C53.1349558,254.377608 53.1349558,253.82013 52.6548673,253.385025 C52.4380531,253.175183 51.9269912,253.041504 51.0287611,253.438687 C49.8982301,253.93859 49.170354,255.03372 48.7367257,256.340419 L48.7367257,254.452189 L46.5530973,255.615569 L46.5530973,256.173047 C47.6371681,255.693688 47.7610619,255.764786 47.7610619,256.64596 L47.7610619,261.465441 C47.7610619,262.274682 47.590708,262.35001 46.5530973,262.808825 L46.5530973,263.366302 L48.3030973,262.53853 L50.0376106,261.825506 L50.0376106,261.268028 L49.7641473,261.38825 C48.9690968,261.733168 48.829646,261.7251 48.829646,260.99293 L48.829646,257.684032 C48.829646,255.813786 49.9292035,254.320523 50.920354,253.882252 C51.8960177,253.450829 52.0663717,254.346591 52.0663717,255.37163 L52.0663717,259.561701 C52.0663717,260.370942 51.8960177,260.44627 50.8584071,260.905085 L50.8584071,261.462562 L52.6084071,260.634791 L54.3429204,259.921766 Z M58.3230088,258.359648 C58.5243363,258.270624 58.5862832,258.081384 58.6482301,257.874161 L60.6769912,251.132555 C60.8163717,250.657311 61.079646,249.76762 62.1017699,249.29767 L62.1017699,248.740193 C61.7455752,248.933663 61.2964602,249.150237 60.9402655,249.307741 L59.5929204,249.849566 L59.5929204,250.407043 C60.1659292,250.171651 60.3362832,250.509936 60.3362832,250.851615 C60.3362832,251.013463 60.3053097,251.099092 60.2433628,251.324298 L58.6637168,256.608493 L56.9292035,252.358172 C56.8362832,252.165479 56.8362832,252.093546 56.8362832,252.093546 C56.8362832,251.625985 57.4402655,251.358913 57.7190265,251.23565 L57.7190265,250.678172 L56.0309735,251.478552 C55.6128319,251.663448 54.9933628,251.919384 54.5287611,252.088857 L54.5287611,252.646335 C55.5044248,252.214911 55.5663717,252.295418 55.7676991,252.763872 L57.9977876,258.161776 C58.090708,258.372452 58.1216814,258.448672 58.3230088,258.359648 Z" id="GraphConv" fill="#000000" fill-rule="nonzero"></path>
        <path id="Line" d="M170.4375,211.0625 L174.9375,220.0625 L170.937,220.062 L170.9375,228.0625 L169.9375,228.0625 L169.937,220.062 L165.9375,220.0625 L170.4375,211.0625 Z" fill="#000000" fill-rule="nonzero"></path>
        <path id="Line" d="M110.4375,202.0625 L114.9375,211.0625 L110.937,211.062 L110.9375,219.0625 L109.9375,219.0625 L109.937,211.062 L105.9375,211.0625 L110.4375,202.0625 Z" fill="#000000" fill-rule="nonzero"></path>
        <path id="Line" d="M50.4375,193.0625 L54.9375,202.0625 L50.937,202.062 L50.9375,210.0625 L49.9375,210.0625 L49.937,202.062 L45.9375,202.0625 L50.4375,193.0625 Z" fill="#000000" fill-rule="nonzero"></path>
        <path id="Line" d="M170.4375,143.0625 L174.9375,152.0625 L170.937,152.062 L170.9375,160.0625 L169.9375,160.0625 L169.937,152.062 L165.9375,152.0625 L170.4375,143.0625 Z" fill="#000000" fill-rule="nonzero"></path>
        <path id="Line" d="M110.4375,134.0625 L114.9375,143.0625 L110.937,143.062 L110.9375,151.0625 L109.9375,151.0625 L109.937,143.062 L105.9375,143.0625 L110.4375,134.0625 Z" fill="#000000" fill-rule="nonzero"></path>
        <path id="Line" d="M50.4375,125.0625 L54.9375,134.0625 L50.937,134.062 L50.9375,142.0625 L49.9375,142.0625 L49.937,134.062 L45.9375,134.0625 L50.4375,125.0625 Z" fill="#000000" fill-rule="nonzero"></path>
        <path id="Line" d="M170.4375,57.0625 L174.9375,66.0625 L170.937,66.062 L170.9375,74.0625 L169.9375,74.0625 L169.937,66.062 L165.9375,66.0625 L170.4375,57.0625 Z" fill="#000000" fill-rule="nonzero"></path>
        <text id="Delayed-Residual" transform="translate(237.000000, 162.500000) rotate(90.000000) translate(-237.000000, -162.500000) " font-family="LMRoman10-Regular, Latin Modern Roman" font-size="18" font-weight="normal" fill="#000000">
            <tspan x="169" y="170">Delayed Residual</tspan>
        </text>
    </g>
</svg>